<svg xmlns="http://www.w3.org/2000/svg" xmlns:xlink="http://www.w3.org/1999/xlink" version="1.1" x="0px" y="0px" viewBox="0 0 100 125" style="enable-background:new 0 0 100 100;" xml:space="preserve"><style type="text/css">
	.st0{fill:none;stroke:#000000;stroke-width:2;stroke-linecap:round;stroke-linejoin:round;stroke-miterlimit:10;}
	.st1{fill:none;stroke:#000000;stroke-width:2;stroke-miterlimit:10;}
</style><path d="M73.405,42.875h-0.986c-0.611-1.763-1.798-3.282-3.43-4.291c0.373-1.527,0.561-3.07,0.561-4.6  c0-8.076-5.026-15.343-12.539-18.223C56.563,12.512,53.776,10,50.406,10c-3.268,0-5.99,2.363-6.56,5.469  c-2.725,0.909-5.229,2.423-7.313,4.417l-6.911-8.692c-1.088-1.365-3.085-1.59-4.451-0.504l-1.008,0.805  c-0.662,0.526-1.079,1.279-1.174,2.12c-0.095,0.841,0.143,1.668,0.67,2.33l8.364,10.499c-1.003,2.391-1.518,4.926-1.518,7.541  c0,1.711,0.223,3.408,0.663,5.054c-1.303,0.992-2.258,2.328-2.782,3.837h-0.978c-0.985,0-1.927,0.421-2.585,1.154  c-0.671,0.747-0.993,1.753-0.883,2.76c1.436,13.185,12.298,23.202,25.467,23.688V88h-5.5c-0.552,0-1,0.447-1,1s0.448,1,1,1h13  c0.552,0,1-0.447,1-1s-0.448-1-1-1h-5.5V70.477c13.17-0.485,24.032-10.503,25.467-23.688c0.11-1.006-0.212-2.012-0.882-2.76  C75.333,43.296,74.391,42.875,73.405,42.875z M50.406,12c2.578,0,4.675,2.097,4.675,4.675s-2.097,4.675-4.675,4.675  s-4.675-2.097-4.675-4.675S47.829,12,50.406,12z M27.475,17.525l2.832-2.256l1.687,2.121l-2.831,2.255L27.475,17.525z   M33.239,18.955l1.687,2.121l-2.827,2.252l-1.689-2.12L33.239,18.955z M40.711,28.353c-1.049,1.795-2.281,2.142-2.859,2.199  l-1.757-2.206l2.823-2.248L40.711,28.353z M34.849,26.782l-1.504-1.889l2.826-2.251l1.503,1.89L34.849,26.782z M24.977,13.84  c0.035-0.31,0.188-0.587,0.433-0.781l1.008-0.805C26.632,12.083,26.889,12,27.144,12c0.343,0,0.684,0.15,0.913,0.438l1.005,1.264  l-2.834,2.258l-1.005-1.262C25.029,14.454,24.941,14.149,24.977,13.84z M36.581,32.166c0.155,0.194,0.376,0.324,0.622,0.364  c0.028,0.004,0.18,0.027,0.422,0.027c0.989,0,3.479-0.376,5.175-3.88c0.167-0.346,0.122-0.757-0.117-1.058l-4.899-6.161  c1.725-1.686,3.777-3.005,6.019-3.858c0.454,3.242,3.237,5.748,6.603,5.748c3.263,0,5.981-2.354,6.557-5.452  c6.179,2.668,10.316,8.702,10.562,15.454c-2.358,0.169-3.626,1.527-4.741,2.748c-1.086,1.189-1.943,2.129-3.744,2.129  c-1.8,0-2.658-0.939-3.743-2.129c-1.19-1.304-2.539-2.781-5.221-2.781c-2.681,0-4.028,1.478-5.217,2.781  c-1.085,1.189-1.942,2.129-3.74,2.129c-1.799,0-2.656-0.939-3.742-2.129c-1.13-1.239-2.418-2.619-4.842-2.755  c0.062-1.744,0.376-3.443,0.94-5.076L36.581,32.166z M32.858,40.297c0.383-0.241,0.557-0.709,0.423-1.142  c-0.382-1.24-0.623-2.517-0.723-3.81c1.527,0.133,2.342,1.006,3.342,2.102c1.189,1.304,2.538,2.781,5.219,2.781  c2.681,0,4.029-1.478,5.218-2.781c1.085-1.189,1.942-2.129,3.74-2.129c1.8,0,2.658,0.939,3.743,2.129  c1.19,1.304,2.539,2.781,5.221,2.781c2.683,0,4.031-1.478,5.221-2.781c0.975-1.068,1.772-1.929,3.227-2.094  c-0.094,1.152-0.3,2.309-0.628,3.453c-0.133,0.465,0.086,0.959,0.521,1.172c2.162,1.061,3.505,3.209,3.505,5.606  c0,3.445-2.803,6.248-6.249,6.248c-1.881,0-3.646-0.838-4.839-2.298c-0.307-0.375-0.837-0.478-1.261-0.24  c-2.597,1.447-5.541,2.212-8.512,2.212c-2.81,0-5.509-0.658-8.023-1.957c-0.402-0.208-0.896-0.117-1.201,0.218  c-1.187,1.312-2.875,2.065-4.631,2.065c-3.445,0-6.248-2.803-6.248-6.248C29.925,43.428,31.021,41.451,32.858,40.297z   M74.885,46.572C73.524,59.073,63,68.5,50.406,68.5c-12.594,0-23.118-9.427-24.479-21.928c-0.048-0.442,0.092-0.883,0.384-1.208  c0.283-0.315,0.672-0.489,1.096-0.489h0.559c-0.02,0.235-0.041,0.471-0.041,0.71c0,4.548,3.7,8.248,8.248,8.248  c2.065,0,4.057-0.786,5.574-2.18c2.611,1.23,5.393,1.854,8.28,1.854c3.045,0,6.063-0.721,8.78-2.091  c1.542,1.545,3.625,2.417,5.832,2.417c4.548,0,8.249-3.7,8.249-8.248c0-0.24-0.025-0.474-0.045-0.71h0.562  c0.424,0,0.813,0.174,1.097,0.489C74.794,45.689,74.934,46.13,74.885,46.572z"/><path d="M44.775,27.116c0.198,0.237,0.482,0.359,0.768,0.359c0.226,0,0.454-0.076,0.641-0.232c0.424-0.354,0.48-0.984,0.126-1.408  l-0.812-0.972c-0.354-0.425-0.985-0.481-1.409-0.127s-0.48,0.984-0.126,1.408L44.775,27.116z"/><path d="M51.639,28.579c0.198,0.237,0.482,0.359,0.768,0.359c0.226,0,0.454-0.076,0.641-0.232c0.424-0.354,0.48-0.984,0.126-1.408  l-0.812-0.972c-0.354-0.425-0.985-0.48-1.409-0.127c-0.424,0.354-0.48,0.984-0.126,1.408L51.639,28.579z"/><path d="M62.4,26.709c0.198,0.237,0.482,0.359,0.768,0.359c0.226,0,0.454-0.076,0.641-0.232c0.424-0.354,0.48-0.984,0.126-1.408  l-0.812-0.972c-0.354-0.425-0.985-0.481-1.409-0.127s-0.48,0.984-0.126,1.408L62.4,26.709z"/><path d="M42.557,34.514c0.198,0.237,0.482,0.359,0.768,0.359c0.226,0,0.454-0.076,0.641-0.232c0.424-0.354,0.48-0.984,0.126-1.408  l-0.812-0.972c-0.354-0.425-0.985-0.481-1.409-0.127c-0.424,0.354-0.48,0.984-0.126,1.408L42.557,34.514z"/><path d="M58.434,32.746c-0.354-0.423-0.985-0.479-1.408-0.126c-0.424,0.354-0.48,0.985-0.126,1.409l0.812,0.972  c0.198,0.236,0.482,0.358,0.768,0.358c0.226,0,0.454-0.076,0.641-0.232c0.424-0.354,0.48-0.985,0.126-1.409L58.434,32.746z"/><path d="M56.086,24.673l1.223,0.188c0.051,0.008,0.102,0.012,0.153,0.012c0.485,0,0.911-0.354,0.987-0.849  c0.084-0.546-0.291-1.056-0.837-1.14l-1.223-0.188c-0.541-0.081-1.056,0.29-1.14,0.837C55.166,24.079,55.541,24.589,56.086,24.673z"/><path d="M43.501,22.151c0.084-0.546-0.291-1.056-0.837-1.14l-1.223-0.188c-0.542-0.08-1.056,0.29-1.14,0.837  c-0.084,0.546,0.291,1.056,0.837,1.14l1.223,0.188C42.413,22.996,42.463,23,42.514,23C43,23,43.425,22.646,43.501,22.151z"/><path d="M56.473,28.976c-0.084,0.546,0.291,1.056,0.837,1.14l1.223,0.188c0.051,0.008,0.102,0.012,0.153,0.012  c0.485,0,0.911-0.354,0.987-0.849c0.084-0.546-0.291-1.056-0.837-1.14l-1.223-0.188C57.07,28.055,56.556,28.429,56.473,28.976z"/><path d="M48.222,31.581l1.223,0.188c0.051,0.008,0.102,0.012,0.153,0.012c0.485,0,0.911-0.354,0.987-0.849  c0.084-0.546-0.291-1.056-0.837-1.14l-1.223-0.188c-0.538-0.081-1.056,0.29-1.14,0.837C47.301,30.987,47.676,31.497,48.222,31.581z"/><path d="M62.167,30.535c-0.084,0.546,0.291,1.056,0.837,1.14l1.223,0.188c0.051,0.008,0.102,0.012,0.153,0.012  c0.485,0,0.911-0.354,0.987-0.849c0.084-0.546-0.291-1.056-0.837-1.14l-1.223-0.188C62.767,29.616,62.25,29.988,62.167,30.535z"/></svg>