<svg xmlns="http://www.w3.org/2000/svg" xmlns:xlink="http://www.w3.org/1999/xlink" viewBox="0 0 61 75" version="1.1" x="0px" y="0px"><title>27 -Pasta- (Outline)</title><desc>Created with Sketch.</desc><g stroke="none" stroke-width="1" fill="none" fill-rule="evenodd"><g transform="translate(-840.000000, -566.000000)" fill="#000000"><g transform="translate(840.000000, 565.000000)"><path d="M2.0312,48.9987 L2.0312,52.5967 C2.0312,53.9207 3.1082,54.9987 4.4322,54.9987 L55.6292,54.9987 C56.9532,54.9987 58.0312,53.9207 58.0312,52.5967 L58.0312,48.9987 L2.0312,48.9987 Z M55.6292,56.9987 L4.4322,56.9987 C2.0062,56.9987 0.0312,55.0237 0.0312,52.5967 L0.0312,47.9987 C0.0312,47.4467 0.4782,46.9987 1.0312,46.9987 L59.0312,46.9987 C59.5842,46.9987 60.0312,47.4467 60.0312,47.9987 L60.0312,52.5967 C60.0312,55.0237 58.0562,56.9987 55.6292,56.9987 L55.6292,56.9987 Z"/><path d="M18.0312,48.9987 C17.4782,48.9987 17.0312,48.5507 17.0312,47.9987 C17.0312,46.8957 16.1342,45.9987 15.0312,45.9987 C13.9282,45.9987 13.0312,46.8957 13.0312,47.9987 C13.0312,48.5507 12.5842,48.9987 12.0312,48.9987 C11.4782,48.9987 11.0312,48.5507 11.0312,47.9987 C11.0312,45.7927 12.8252,43.9987 15.0312,43.9987 C17.2372,43.9987 19.0312,45.7927 19.0312,47.9987 C19.0312,48.5507 18.5842,48.9987 18.0312,48.9987"/><path d="M22.0312,48.9987 C21.4782,48.9987 21.0312,48.5507 21.0312,47.9987 C21.0312,44.6897 18.3402,41.9987 15.0312,41.9987 C11.7222,41.9987 9.0312,44.6897 9.0312,47.9987 C9.0312,48.5507 8.5842,48.9987 8.0312,48.9987 C7.4782,48.9987 7.0312,48.5507 7.0312,47.9987 C7.0312,43.5877 10.6202,39.9987 15.0312,39.9987 C19.4422,39.9987 23.0312,43.5877 23.0312,47.9987 C23.0312,48.5507 22.5842,48.9987 22.0312,48.9987"/><path d="M26.0312,48.9987 C25.4782,48.9987 25.0312,48.5507 25.0312,47.9987 C25.0312,42.4847 20.5452,37.9987 15.0312,37.9987 C9.5172,37.9987 5.0312,42.4847 5.0312,47.9987 C5.0312,48.5507 4.5842,48.9987 4.0312,48.9987 C3.4782,48.9987 3.0312,48.5507 3.0312,47.9987 C3.0312,41.3817 8.4142,35.9987 15.0312,35.9987 C21.6482,35.9987 27.0312,41.3817 27.0312,47.9987 C27.0312,48.5507 26.5842,48.9987 26.0312,48.9987"/><path d="M48.0312,48.9987 C47.4782,48.9987 47.0312,48.5507 47.0312,47.9987 C47.0312,46.8957 46.1342,45.9987 45.0312,45.9987 C43.9282,45.9987 43.0312,46.8957 43.0312,47.9987 C43.0312,48.5507 42.5842,48.9987 42.0312,48.9987 C41.4782,48.9987 41.0312,48.5507 41.0312,47.9987 C41.0312,45.7927 42.8252,43.9987 45.0312,43.9987 C47.2372,43.9987 49.0312,45.7927 49.0312,47.9987 C49.0312,48.5507 48.5842,48.9987 48.0312,48.9987"/><path d="M52.0312,48.9987 C51.4782,48.9987 51.0312,48.5507 51.0312,47.9987 C51.0312,44.6897 48.3402,41.9987 45.0312,41.9987 C41.7222,41.9987 39.0312,44.6897 39.0312,47.9987 C39.0312,48.5507 38.5842,48.9987 38.0312,48.9987 C37.4782,48.9987 37.0312,48.5507 37.0312,47.9987 C37.0312,43.5877 40.6202,39.9987 45.0312,39.9987 C49.4422,39.9987 53.0312,43.5877 53.0312,47.9987 C53.0312,48.5507 52.5842,48.9987 52.0312,48.9987"/><path d="M56.0312,48.9987 C55.4782,48.9987 55.0312,48.5507 55.0312,47.9987 C55.0312,42.4847 50.5452,37.9987 45.0312,37.9987 C39.5172,37.9987 35.0312,42.4847 35.0312,47.9987 C35.0312,48.5507 34.5842,48.9987 34.0312,48.9987 C33.4782,48.9987 33.0312,48.5507 33.0312,47.9987 C33.0312,41.3817 38.4142,35.9987 45.0312,35.9987 C51.6482,35.9987 57.0312,41.3817 57.0312,47.9987 C57.0312,48.5507 56.5842,48.9987 56.0312,48.9987"/><path d="M37.0312,40.9987 C36.4782,40.9987 36.0312,40.5507 36.0312,39.9987 C36.0312,36.6897 33.3402,33.9987 30.0312,33.9987 C26.7222,33.9987 24.0312,36.6897 24.0312,39.9987 C24.0312,40.5507 23.5842,40.9987 23.0312,40.9987 C22.4782,40.9987 22.0312,40.5507 22.0312,39.9987 C22.0312,35.5877 25.6202,31.9987 30.0312,31.9987 C34.4422,31.9987 38.0312,35.5877 38.0312,39.9987 C38.0312,40.5507 37.5842,40.9987 37.0312,40.9987"/><path d="M19.2451,38.8352 C19.1811,38.8352 19.1141,38.8292 19.0491,38.8152 C18.5071,38.7082 18.1551,38.1812 18.2641,37.6392 C19.3781,32.0532 24.3261,27.9992 30.0311,27.9992 C35.7071,27.9992 40.6511,32.0292 41.7871,37.5822 C41.8981,38.1232 41.5491,38.6512 41.0081,38.7612 C40.4701,38.8742 39.9381,38.5232 39.8281,37.9822 C38.8821,33.3562 34.7621,29.9992 30.0311,29.9992 C25.2771,29.9992 21.1531,33.3772 20.2241,38.0312 C20.1301,38.5062 19.7121,38.8352 19.2451,38.8352"/><path d="M30.0312,37.9987 C28.9282,37.9987 28.0312,38.8957 28.0312,39.9987 C28.0312,41.1017 28.9282,41.9987 30.0312,41.9987 C31.1342,41.9987 32.0312,41.1017 32.0312,39.9987 C32.0312,38.8957 31.1342,37.9987 30.0312,37.9987 M30.0312,43.9987 C27.8252,43.9987 26.0312,42.2047 26.0312,39.9987 C26.0312,37.7927 27.8252,35.9987 30.0312,35.9987 C32.2372,35.9987 34.0312,37.7927 34.0312,39.9987 C34.0312,42.2047 32.2372,43.9987 30.0312,43.9987"/><path d="M24.0312,11.9987 L25.7612,11.9987 C25.9102,11.9987 26.0312,11.8777 26.0312,11.7297 L26.0312,6.2677 C26.0312,6.1197 25.9102,5.9987 25.7612,5.9987 L24.0312,5.9987 L24.0312,11.9987 Z M25.7612,13.9987 L23.0312,13.9987 C22.4782,13.9987 22.0312,13.5507 22.0312,12.9987 L22.0312,4.9987 C22.0312,4.4467 22.4782,3.9987 23.0312,3.9987 L25.7612,3.9987 C27.0122,3.9987 28.0312,5.0167 28.0312,6.2677 L28.0312,11.7297 C28.0312,12.9807 27.0122,13.9987 25.7612,13.9987 L25.7612,13.9987 Z"/><path d="M23.0312,5.9987 L10.0312,5.9987 C9.4782,5.9987 9.0312,5.5507 9.0312,4.9987 C9.0312,4.4467 9.4782,3.9987 10.0312,3.9987 L23.0312,3.9987 C23.5842,3.9987 24.0312,4.4467 24.0312,4.9987 C24.0312,5.5507 23.5842,5.9987 23.0312,5.9987"/><path d="M23.0312,13.9987 L10.0312,13.9987 C9.4782,13.9987 9.0312,13.5507 9.0312,12.9987 C9.0312,12.4467 9.4782,11.9987 10.0312,11.9987 L23.0312,11.9987 C23.5842,11.9987 24.0312,12.4467 24.0312,12.9987 C24.0312,13.5507 23.5842,13.9987 23.0312,13.9987"/><path d="M23.0312,9.9987 L10.0312,9.9987 C9.4782,9.9987 9.0312,9.5507 9.0312,8.9987 C9.0312,8.4467 9.4782,7.9987 10.0312,7.9987 L23.0312,7.9987 C23.5842,7.9987 24.0312,8.4467 24.0312,8.9987 C24.0312,9.5507 23.5842,9.9987 23.0312,9.9987"/><path d="M35.0312,9.9987 L27.0312,9.9987 C26.4782,9.9987 26.0312,9.5507 26.0312,8.9987 C26.0312,8.4467 26.4782,7.9987 27.0312,7.9987 L35.0312,7.9987 C35.5842,7.9987 36.0312,8.4467 36.0312,8.9987 C36.0312,9.5507 35.5842,9.9987 35.0312,9.9987"/><path d="M38.0312,6.9987 C36.9282,6.9987 36.0312,7.8957 36.0312,8.9987 C36.0312,10.1017 36.9282,10.9987 38.0312,10.9987 L54.0312,10.9987 C55.1342,10.9987 56.0312,10.1017 56.0312,8.9987 C56.0312,7.8957 55.1342,6.9987 54.0312,6.9987 L38.0312,6.9987 Z M54.0312,12.9987 L38.0312,12.9987 C35.8252,12.9987 34.0312,11.2047 34.0312,8.9987 C34.0312,6.7927 35.8252,4.9987 38.0312,4.9987 L54.0312,4.9987 C56.2372,4.9987 58.0312,6.7927 58.0312,8.9987 C58.0312,11.2047 56.2372,12.9987 54.0312,12.9987 L54.0312,12.9987 Z"/><path d="M25.0312,30.9987 C24.4782,30.9987 24.0312,30.5507 24.0312,29.9987 L24.0312,26.9987 C24.0312,26.4467 24.4782,25.9987 25.0312,25.9987 C25.5842,25.9987 26.0312,26.4467 26.0312,26.9987 L26.0312,29.9987 C26.0312,30.5507 25.5842,30.9987 25.0312,30.9987"/><path d="M25.0312,27.9987 C24.4782,27.9987 24.0312,27.5507 24.0312,26.9987 C24.0312,25.8957 23.1342,24.9987 22.0312,24.9987 C21.4782,24.9987 21.0312,24.5507 21.0312,23.9987 C21.0312,23.4467 21.4782,22.9987 22.0312,22.9987 C24.2372,22.9987 26.0312,24.7927 26.0312,26.9987 C26.0312,27.5507 25.5842,27.9987 25.0312,27.9987"/><path d="M22.0312,24.9987 C19.8252,24.9987 18.0312,23.2047 18.0312,20.9987 C18.0312,20.4467 18.4782,19.9987 19.0312,19.9987 C19.5842,19.9987 20.0312,20.4467 20.0312,20.9987 C20.0312,22.1017 20.9282,22.9987 22.0312,22.9987 C22.5842,22.9987 23.0312,23.4467 23.0312,23.9987 C23.0312,24.5507 22.5842,24.9987 22.0312,24.9987"/><path d="M19.0312,21.9987 C18.4782,21.9987 18.0312,21.5507 18.0312,20.9987 L18.0312,1.9987 C18.0312,1.4467 18.4782,0.9987 19.0312,0.9987 C19.5842,0.9987 20.0312,1.4467 20.0312,1.9987 L20.0312,20.9987 C20.0312,21.5507 19.5842,21.9987 19.0312,21.9987"/><path d="M15.0312,16.9987 C14.4782,16.9987 14.0312,16.5507 14.0312,15.9987 L14.0312,1.9987 C14.0312,1.4467 14.4782,0.9987 15.0312,0.9987 C15.5842,0.9987 16.0312,1.4467 16.0312,1.9987 L16.0312,15.9987 C16.0312,16.5507 15.5842,16.9987 15.0312,16.9987"/><path d="M8.0518,56.9987 C8.2048,58.1267 9.1738,58.9987 10.3428,58.9987 L49.7198,58.9987 C50.8888,58.9987 51.8578,58.1267 52.0108,56.9987 L8.0518,56.9987 Z M49.7198,60.9987 L10.3428,60.9987 C7.9658,60.9987 6.0308,59.0647 6.0308,56.6867 L6.0308,55.9987 C6.0308,55.4467 6.4788,54.9987 7.0308,54.9987 L53.0308,54.9987 C53.5838,54.9987 54.0308,55.4467 54.0308,55.9987 L54.0308,56.6867 C54.0308,59.0647 52.0968,60.9987 49.7198,60.9987 L49.7198,60.9987 Z"/><path d="M11.0312,52.9987 L8.0312,52.9987 C7.4782,52.9987 7.0312,52.5507 7.0312,51.9987 C7.0312,51.4467 7.4782,50.9987 8.0312,50.9987 L11.0312,50.9987 C11.5842,50.9987 12.0312,51.4467 12.0312,51.9987 C12.0312,52.5507 11.5842,52.9987 11.0312,52.9987"/><path d="M19.0312,52.9987 L16.0312,52.9987 C15.4782,52.9987 15.0312,52.5507 15.0312,51.9987 C15.0312,51.4467 15.4782,50.9987 16.0312,50.9987 L19.0312,50.9987 C19.5842,50.9987 20.0312,51.4467 20.0312,51.9987 C20.0312,52.5507 19.5842,52.9987 19.0312,52.9987"/><path d="M27.0312,52.9987 L24.0312,52.9987 C23.4782,52.9987 23.0312,52.5507 23.0312,51.9987 C23.0312,51.4467 23.4782,50.9987 24.0312,50.9987 L27.0312,50.9987 C27.5842,50.9987 28.0312,51.4467 28.0312,51.9987 C28.0312,52.5507 27.5842,52.9987 27.0312,52.9987"/><path d="M35.0312,52.9987 L32.0312,52.9987 C31.4782,52.9987 31.0312,52.5507 31.0312,51.9987 C31.0312,51.4467 31.4782,50.9987 32.0312,50.9987 L35.0312,50.9987 C35.5842,50.9987 36.0312,51.4467 36.0312,51.9987 C36.0312,52.5507 35.5842,52.9987 35.0312,52.9987"/><path d="M43.0312,52.9987 L40.0312,52.9987 C39.4782,52.9987 39.0312,52.5507 39.0312,51.9987 C39.0312,51.4467 39.4782,50.9987 40.0312,50.9987 L43.0312,50.9987 C43.5842,50.9987 44.0312,51.4467 44.0312,51.9987 C44.0312,52.5507 43.5842,52.9987 43.0312,52.9987"/><path d="M51.0312,52.9987 L48.0312,52.9987 C47.4782,52.9987 47.0312,52.5507 47.0312,51.9987 C47.0312,51.4467 47.4782,50.9987 48.0312,50.9987 L51.0312,50.9987 C51.5842,50.9987 52.0312,51.4467 52.0312,51.9987 C52.0312,52.5507 51.5842,52.9987 51.0312,52.9987"/><path d="M44.031,10.999 L48.031,10.999 L48.031,6.999 L44.031,6.999 L44.031,10.999 Z M49.031,12.999 L43.031,12.999 C42.479,12.999 42.031,12.551 42.031,11.999 L42.031,5.999 C42.031,5.447 42.479,4.999 43.031,4.999 L49.031,4.999 C49.584,4.999 50.031,5.447 50.031,5.999 L50.031,11.999 C50.031,12.551 49.584,12.999 49.031,12.999 L49.031,12.999 Z"/></g></g></g></svg>