<svg xmlns:dc="http://purl.org/dc/elements/1.1/" xmlns:cc="http://creativecommons.org/ns#" xmlns:rdf="http://www.w3.org/1999/02/22-rdf-syntax-ns#" xmlns:svg="http://www.w3.org/2000/svg" xmlns="http://www.w3.org/2000/svg" xmlns:sodipodi="http://sodipodi.sourceforge.net/DTD/sodipodi-0.dtd" xmlns:inkscape="http://www.inkscape.org/namespaces/inkscape" viewBox="0 0 32 40.00000125" version="1.1" x="0px" y="0px"><g transform="translate(0,-1020.3622)"><path style="color:#000000;font-style:normal;font-variant:normal;font-weight:normal;font-stretch:normal;font-size:medium;line-height:normal;font-family:sans-serif;text-indent:0;text-align:start;text-decoration:none;text-decoration-line:none;text-decoration-style:solid;text-decoration-color:#000000;letter-spacing:normal;word-spacing:normal;text-transform:none;direction:ltr;writing-mode:lr-tb;baseline-shift:baseline;text-anchor:start;white-space:normal;clip-rule:nonzero;display:inline;overflow:visible;visibility:visible;opacity:1;isolation:auto;mix-blend-mode:normal;color-interpolation:sRGB;color-interpolation-filters:linearRGB;solid-color:#000000;solid-opacity:1;fill:#000000;fill-opacity:1;fill-rule:evenodd;stroke:none;stroke-width:1px;stroke-linecap:butt;stroke-linejoin:round;stroke-miterlimit:4;stroke-dasharray:none;stroke-dashoffset:0;stroke-opacity:1;color-rendering:auto;image-rendering:auto;shape-rendering:auto;text-rendering:auto;enable-background:accumulate" d="m 4.4995,1034.8618 c -1.0987,0 -2.0001,0.9014 -2.0001,2 l 0,11 a 0.5000713,0.50005 0 0 0 0.5,0.5 l 2.5001,0 a 0.5000713,0.50005 0 0 0 0.5001,-0.5 l 0,-2 c 1.1803,0 2.0346,-0.8955 2.2931,-2 l 6.7072,0 0,4 a 0.5000713,0.50005 0 0 0 0.5001,0.5 l 2.5001,0 a 0.5000713,0.50005 0 0 0 0.5,-0.5 l 0,-3.4629 c 0,-0.5306 0.2108,-1.0388 0.5859,-1.414 l 2.9142,-2.9141 0.6466,0.6445 a 0.5000713,0.50005 0 0 0 0.6445,0.055 l 1.4611,-1.0449 c 0.3709,-0.2649 0.4786,-0.783 0.2441,-1.1738 l -1.631,-2.7168 c -0.361,-0.6018 -1.013,-0.9727 -1.7149,-0.9727 z m 0,1 17.1511,0 c 0.352,0 0.6764,0.1845 0.8575,0.4864 l 1.5762,2.6269 -1.0293,0.7344 -0.3477,-0.3477 c -0.3863,-0.3865 -1.0278,-0.3865 -1.4141,0 l -2.9142,2.916 c -0.5624,0.5625 -0.879,1.3257 -0.879,2.1211 l 0,2.9629 -1.5,0 0,-4 a 0.5000713,0.50005 0 0 0 -0.5,-0.5 l -7.5004,0 a 0.5000713,0.50005 0 0 0 -0.5,0.5 c 0,0.8344 -0.6657,1.5 -1.5,1.5 l 0,-2 -1.0001,0 0,4.5 -1.5001,0 0,-10.5 c 0,-0.5582 0.4419,-1 1.0001,-1 z"/><path style="color:#000000;font-style:normal;font-variant:normal;font-weight:normal;font-stretch:normal;font-size:medium;line-height:normal;font-family:sans-serif;text-indent:0;text-align:start;text-decoration:none;text-decoration-line:none;text-decoration-style:solid;text-decoration-color:#000000;letter-spacing:normal;word-spacing:normal;text-transform:none;direction:ltr;writing-mode:lr-tb;baseline-shift:baseline;text-anchor:start;white-space:normal;clip-rule:nonzero;display:inline;overflow:visible;visibility:visible;opacity:1;isolation:auto;mix-blend-mode:normal;color-interpolation:sRGB;color-interpolation-filters:linearRGB;solid-color:#000000;solid-opacity:1;fill:#000000;fill-opacity:1;fill-rule:evenodd;stroke:none;stroke-width:1px;stroke-linecap:butt;stroke-linejoin:miter;stroke-miterlimit:4;stroke-dasharray:none;stroke-dashoffset:0;stroke-opacity:1;color-rendering:auto;image-rendering:auto;shape-rendering:auto;text-rendering:auto;enable-background:accumulate" d="m 23.5003,1033.1118 0,0.25 c 0,0.8344 -0.6657,1.5 -1.5001,1.5 l -0.25,0 0,1 0.25,0 c 1.3749,0 2.5001,-1.1252 2.5001,-2.5 l 0,-0.25 z"/><path style="color:#000000;font-style:normal;font-variant:normal;font-weight:normal;font-stretch:normal;font-size:medium;line-height:normal;font-family:sans-serif;text-indent:0;text-align:start;text-decoration:none;text-decoration-line:none;text-decoration-style:solid;text-decoration-color:#000000;letter-spacing:normal;word-spacing:normal;text-transform:none;direction:ltr;writing-mode:lr-tb;baseline-shift:baseline;text-anchor:start;white-space:normal;clip-rule:nonzero;display:inline;overflow:visible;visibility:visible;opacity:1;isolation:auto;mix-blend-mode:normal;color-interpolation:sRGB;color-interpolation-filters:linearRGB;solid-color:#000000;solid-opacity:1;fill:#000000;fill-opacity:1;fill-rule:evenodd;stroke:none;stroke-width:1px;stroke-linecap:butt;stroke-linejoin:miter;stroke-miterlimit:4;stroke-dasharray:none;stroke-dashoffset:0;stroke-opacity:1;color-rendering:auto;image-rendering:auto;shape-rendering:auto;text-rendering:auto;enable-background:accumulate" d="m 2.4994,1039.3618 0,0.25 c 0,0.8344 -0.6657,1.5 -1.5001,1.5 l -0.25,0 0,1 0.25,0 c 1.3749,0 2.5001,-1.1252 2.5001,-2.5 l 0,-0.25 z"/><path style="color:#000000;font-style:normal;font-variant:normal;font-weight:normal;font-stretch:normal;font-size:medium;line-height:normal;font-family:sans-serif;text-indent:0;text-align:start;text-decoration:none;text-decoration-line:none;text-decoration-style:solid;text-decoration-color:#000000;letter-spacing:normal;word-spacing:normal;text-transform:none;direction:ltr;writing-mode:lr-tb;baseline-shift:baseline;text-anchor:start;white-space:normal;clip-rule:nonzero;display:inline;overflow:visible;visibility:visible;opacity:1;isolation:auto;mix-blend-mode:normal;color-interpolation:sRGB;color-interpolation-filters:linearRGB;solid-color:#000000;solid-opacity:1;fill:#000000;fill-opacity:1;fill-rule:nonzero;stroke:none;stroke-width:0.99999988;stroke-linecap:round;stroke-linejoin:round;stroke-miterlimit:4;stroke-dasharray:none;stroke-dashoffset:0;stroke-opacity:1;color-rendering:auto;image-rendering:auto;shape-rendering:auto;text-rendering:auto;enable-background:accumulate" d="m 23.7503,1023.8618 a 0.50007124,0.50004994 0 0 0 -0.5,0.5 l 0,2 a 0.50007124,0.50004994 0 0 0 0.5,0.5 l 5.0002,0 a 0.50007124,0.50004994 0 0 0 0.5,-0.5 l 0,-2 a 0.50007124,0.50004994 0 0 0 -0.5,-0.5 z m 0.5,1 4.0002,0 0,1 -4.0002,0 z"/><path style="color:#000000;font-style:normal;font-variant:normal;font-weight:normal;font-stretch:normal;font-size:medium;line-height:normal;font-family:sans-serif;text-indent:0;text-align:start;text-decoration:none;text-decoration-line:none;text-decoration-style:solid;text-decoration-color:#000000;letter-spacing:normal;word-spacing:normal;text-transform:none;direction:ltr;writing-mode:lr-tb;baseline-shift:baseline;text-anchor:start;white-space:normal;clip-rule:nonzero;display:inline;overflow:visible;visibility:visible;opacity:1;isolation:auto;mix-blend-mode:normal;color-interpolation:sRGB;color-interpolation-filters:linearRGB;solid-color:#000000;solid-opacity:1;fill:#000000;fill-opacity:1;fill-rule:nonzero;stroke:none;stroke-width:0.99999988;stroke-linecap:butt;stroke-linejoin:round;stroke-miterlimit:4;stroke-dasharray:none;stroke-dashoffset:0;stroke-opacity:1;color-rendering:auto;image-rendering:auto;shape-rendering:auto;text-rendering:auto;enable-background:accumulate" d="m 26.7504,1033.3618 a 0.50007124,0.50004994 0 0 0 -0.5,0.5 l 0,8 a 0.50007124,0.50004994 0 0 0 0.5,0.5 l 4.0002,0 0,-1 -3.5001,0 0,-7 3.5001,0 0,-1 z"/><path style="color:#000000;font-style:normal;font-variant:normal;font-weight:normal;font-stretch:normal;font-size:medium;line-height:normal;font-family:sans-serif;text-indent:0;text-align:start;text-decoration:none;text-decoration-line:none;text-decoration-style:solid;text-decoration-color:#000000;letter-spacing:normal;word-spacing:normal;text-transform:none;direction:ltr;writing-mode:lr-tb;baseline-shift:baseline;text-anchor:start;white-space:normal;clip-rule:nonzero;display:inline;overflow:visible;visibility:visible;opacity:1;isolation:auto;mix-blend-mode:normal;color-interpolation:sRGB;color-interpolation-filters:linearRGB;solid-color:#000000;solid-opacity:1;fill:#000000;fill-opacity:1;fill-rule:nonzero;stroke:none;stroke-width:0.99999988;stroke-linecap:butt;stroke-linejoin:round;stroke-miterlimit:4;stroke-dasharray:none;stroke-dashoffset:0;stroke-opacity:1;color-rendering:auto;image-rendering:auto;shape-rendering:auto;text-rendering:auto;enable-background:accumulate" d="m 28.7505,1035.8618 a 0.50007124,0.50004994 0 0 0 -0.5,0.5 l 0,3 1,0 0,-2.5 1.5001,0 0,-1 z"/><path style="color:#000000;font-style:normal;font-variant:normal;font-weight:normal;font-stretch:normal;font-size:medium;line-height:normal;font-family:sans-serif;text-indent:0;text-align:start;text-decoration:none;text-decoration-line:none;text-decoration-style:solid;text-decoration-color:#000000;letter-spacing:normal;word-spacing:normal;text-transform:none;direction:ltr;writing-mode:lr-tb;baseline-shift:baseline;text-anchor:start;white-space:normal;clip-rule:nonzero;display:inline;overflow:visible;visibility:visible;opacity:1;isolation:auto;mix-blend-mode:normal;color-interpolation:sRGB;color-interpolation-filters:linearRGB;solid-color:#000000;solid-opacity:1;fill:#000000;fill-opacity:1;fill-rule:evenodd;stroke:none;stroke-width:1px;stroke-linecap:butt;stroke-linejoin:miter;stroke-miterlimit:4;stroke-dasharray:none;stroke-dashoffset:0;stroke-opacity:1;color-rendering:auto;image-rendering:auto;shape-rendering:auto;text-rendering:auto;enable-background:accumulate" d="m 23.6038,1025.8638 0,1.1307 c 0,1.1177 -0.4766,1.6665 -1.0703,2.4239 -0.5938,0.7574 -1.2833,1.7139 -1.2833,3.2871 l 0,0.4062 1,0 0,-0.4082 c 0,-1.3003 0.4877,-1.9285 1.0704,-2.6719 0.5827,-0.7434 1.2832,-1.6131 1.2832,-3.0391 l 0,-0.1308 2.1466,0 1.1466,0 0,0.1308 c 0,1.426 0.7035,2.2864 1.2851,3.0215 0.5818,0.7352 1.0685,1.3586 1.0685,2.6895 l 0,11.998 c 0,0.5651 -0.1786,1.1664 -0.4941,1.6035 -0.3916,0.5424 -0.9717,1.0547 -1.3595,1.0547 l -4.2932,0 c -0.079,0 -0.3571,-0.099 -0.6289,-0.3047 -0.2717,-0.2053 -0.5471,-0.493 -0.7285,-0.748 -0.307,-0.4317 -0.4962,-1.0458 -0.4962,-1.6055 -4e-4,-0.7802 0,-2.3418 0,-2.3418 l -1,0 c 0,0 -4e-4,1.5628 0,2.3439 4e-4,0.7713 0.2364,1.5574 0.6816,2.1836 0.2477,0.3481 0.5769,0.6913 0.9415,0.9667 0.3647,0.2754 0.7549,0.5058 1.2305,0.5058 l 4.2932,0 c 1.0261,0 1.7147,-0.84 2.17,-1.4707 0.4585,-0.6352 0.6836,-1.4209 0.6836,-2.1875 l 0,-11.998 c 0,-1.5986 -0.6904,-2.5589 -1.2852,-3.3106 -0.5947,-0.7516 -1.0684,-1.2827 -1.0684,-2.4004 l 0,-1.1308 -2.1466,0 z"/><path style="color:#000000;font-style:normal;font-variant:normal;font-weight:normal;font-stretch:normal;font-size:medium;line-height:normal;font-family:sans-serif;text-indent:0;text-align:start;text-decoration:none;text-decoration-line:none;text-decoration-style:solid;text-decoration-color:#000000;letter-spacing:normal;word-spacing:normal;text-transform:none;direction:ltr;writing-mode:lr-tb;baseline-shift:baseline;text-anchor:start;white-space:normal;clip-rule:nonzero;display:inline;overflow:visible;visibility:visible;opacity:1;isolation:auto;mix-blend-mode:normal;color-interpolation:sRGB;color-interpolation-filters:linearRGB;solid-color:#000000;solid-opacity:1;fill:#000000;fill-opacity:1;fill-rule:evenodd;stroke:none;stroke-width:0.99999994px;stroke-linecap:round;stroke-linejoin:round;stroke-miterlimit:4;stroke-dasharray:none;stroke-dashoffset:0;stroke-opacity:1;color-rendering:auto;image-rendering:auto;shape-rendering:auto;text-rendering:auto;enable-background:accumulate" d="m 0.5071,1047.3618 a 0.50007127,0.50004997 0 1 0 0,1 l 8.9848,0 a 0.50007127,0.50004997 0 1 0 0,-1 z m 12.485,0 a 0.50007127,0.50004997 0 1 0 0,1 l 18.5007,0 a 0.50007127,0.50004997 0 1 0 0,-1 z"/><path style="display:inline;opacity:1;fill:#000000;fill-opacity:1;stroke:none;stroke-width:1.00157475;stroke-linecap:round;stroke-linejoin:round;stroke-miterlimit:4;stroke-dasharray:none;stroke-opacity:1" d="m 10.7425,1047.8622 c 0,0.2762 0.2239,0.5 0.5,0.5 0.2761,0 0.5,-0.2238 0.5,-0.5 0,-0.2763 -0.2239,-0.5 -0.5,-0.5 -0.2761,0 -0.5,0.2237 -0.5,0.5 z"/></g><text x="0" y="47.000001" fill="#000000" font-size="5px" font-weight="bold" font-family="'Helvetica Neue', Helvetica, Arial-Unicode, Arial, Sans-serif">Created by anbileru adaleru</text><text x="0" y="52.000001" fill="#000000" font-size="5px" font-weight="bold" font-family="'Helvetica Neue', Helvetica, Arial-Unicode, Arial, Sans-serif">from the Noun Project</text></svg>