<svg xmlns="http://www.w3.org/2000/svg" xmlns:xlink="http://www.w3.org/1999/xlink" version="1.1" x="0px" y="0px" viewBox="0 0 64 80" style="enable-background:new 0 0 64 64;" xml:space="preserve"><g><path d="M59.552,19.409L56,17.415V15c1.654,0,3-1.346,3-3s-1.346-3-3-3V4c0-1.654-1.346-3-3-3H39c-1.654,0-3,1.346-3,3v5h-0.125   c-1.654,0-3,1.346-3,3s1.346,3,3,3v2.415l-3.552,1.994c-2.054,1.153-3.367,3.265-3.539,5.591H14.847L8.695,3.808l-5.74,1.36   L8.671,25H1v25c0,7.168,5.832,13,13,13h4c4.405,0,8.385-2.238,10.75-5.711V58c0,2.757,2.243,5,5,5h24.375c2.757,0,5-2.243,5-5   V25.512C63.125,22.985,61.756,20.646,59.552,19.409z M38,4c0-0.551,0.448-1,1-1h14c0.552,0,1,0.449,1,1v5H38V4z M7.305,6.192   L12.766,25h-2.013L5.457,6.63L7.305,6.192z M18,61h-4C7.935,61,3,56.065,3,50V27h6h1h18.75v25.318C27.669,57.357,23.177,61,18,61z    M61.125,58c0,1.654-1.346,3-3,3H33.75c-1.654,0-3-1.346-3-3V25.512c0-1.805,0.978-3.476,2.552-4.359l4.573-2.567V13h-2   c-0.552,0-1-0.449-1-1s0.448-1,1-1H36h20c0.552,0,1,0.449,1,1s-0.448,1-1,1h-2v5.585l4.573,2.567   c1.574,0.884,2.552,2.554,2.552,4.359V58z"/><rect x="40" y="5" width="2" height="2"/><rect x="45" y="5" width="2" height="2"/><rect x="50" y="5" width="2" height="2"/><path d="M33,53h26V27H33V53z M35,29h22v22H35V29z"/><rect x="41" y="33" width="14" height="2"/><rect x="37" y="33" width="2" height="2"/><rect x="37" y="45" width="14" height="2"/><rect x="53" y="45" width="2" height="2"/><rect x="37" y="39" width="18" height="2"/><path d="M24.78,43.116C24.919,42.77,25,42.395,25,42v-4c0-1.654-1.346-3-3-3h-4c-0.308,0-0.599,0.06-0.878,0.146   c-0.101-0.59-0.374-1.156-0.829-1.611l-2.828-2.829c-1.171-1.17-3.074-1.168-4.243,0l-2.828,2.829c-1.17,1.169-1.17,3.073,0,4.243   l2.828,2.828C9.373,40.758,9.538,40.888,9.71,41H8c-1.654,0-3,1.346-3,3v6c0,1.654,1.346,3,3,3h6c0.771,0,1.468-0.301,2-0.78   c0.532,0.48,1.229,0.78,2,0.78h6c1.654,0,3-1.346,3-3v-4C27,44.617,26.055,43.461,24.78,43.116z M18,37h4c0.552,0,1,0.449,1,1v4   c0,0.551-0.448,1-1,1h-4c-0.552,0-1-0.449-1-1v-4C17,37.449,17.448,37,18,37z M7.808,36.364c-0.39-0.39-0.39-1.024,0-1.415   l2.828-2.828c0.195-0.195,0.451-0.292,0.708-0.292c0.256,0,0.512,0.097,0.707,0.292l2.828,2.829c0.39,0.39,0.39,1.024,0,1.415   l-2.828,2.828c-0.39,0.389-1.023,0.39-1.415,0L7.808,36.364z M13.465,40.606L15,39.071v2.113C14.686,41.072,14.352,41,14,41h-1.024   C13.149,40.888,13.313,40.758,13.465,40.606z M14,51H8c-0.552,0-1-0.449-1-1v-6c0-0.551,0.448-1,1-1h6c0.552,0,1,0.449,1,1v2v4   C15,50.551,14.552,51,14,51z M25,50c0,0.551-0.448,1-1,1h-6c-0.552,0-1-0.449-1-1v-4c0-0.551,0.448-1,1-1h4h2c0.552,0,1,0.449,1,1   V50z"/></g></svg>