<svg xmlns="http://www.w3.org/2000/svg" xmlns:xlink="http://www.w3.org/1999/xlink" version="1.1" x="0px" y="0px" viewBox="0 0 100 125" style="enable-background:new 0 0 100 100;" xml:space="preserve"><path d="M56.125,38.963c0.043,0.006,0.087,0.008,0.13,0.008c0.495,0,0.925-0.367,0.99-0.872c0.379-2.922,2.05-5.571,4.47-7.085  c0.468-0.293,0.61-0.91,0.317-1.378s-0.91-0.61-1.378-0.317c-2.921,1.829-4.937,5.015-5.392,8.524  C55.19,38.39,55.577,38.892,56.125,38.963z"/><path d="M30.971,89.581c0.503-0.15,1.002-0.343,1.489-0.578c0.486,0.234,0.986,0.428,1.49,0.578c0.94,0.279,1.899,0.414,2.865,0.414  c4.26,0,8.646-2.615,12.056-6.939c4.528,4.468,10.51,6.956,16.688,6.956c0.51,0,1.022-0.017,1.534-0.051  c11.917-0.795,21.719-10.922,22.802-23.555c0.594-6.941-1.36-13.699-5.504-19.028c-1.437-1.849-2.142-4.251-1.984-6.765  c0.024-0.389,0.037-0.781,0.037-1.177c0-6.554-3.079-12.134-8.066-15.31c1.662-0.112,3.378-0.518,4.897-1.458  c5.012-3.1,5.963-10.341,6-10.647c0.058-0.466-0.216-0.91-0.659-1.066c-0.292-0.103-7.195-2.485-12.206,0.616  c-1.236,0.764-2.203,1.788-3.006,2.911l0.045-0.425c0.003-0.034,0.005-0.069,0.005-0.104c0-2.171-1.767-3.938-3.938-3.938  s-3.938,1.766-3.938,3.938c0,0.042,0.002,0.083,0.008,0.125l0.963,7.661c-7.15,1.378-12.812,7.617-13.802,15.257  c-0.136,1.05-0.185,2.114-0.145,3.161c0.105,2.74-0.792,5.572-2.525,7.977c-0.706,0.98-1.342,2.024-1.911,3.1  c-3.736-0.776-7.503,0.134-10.707,2.559l0-4.794c1.93,0.171,6.577,0.249,9.359-2.535c3.502-3.501,2.476-9.958,2.43-10.23  c-0.07-0.422-0.4-0.752-0.822-0.822c-0.273-0.045-6.729-1.072-10.231,2.43c-1.818,1.818-2.416,4.395-2.621,6.76  c-0.517-1.25-1.172-2.542-1.998-3.771c-0.308-0.458-0.929-0.581-1.388-0.271c-0.458,0.308-0.58,0.93-0.271,1.388  c2.908,4.324,3.504,9.696,3.542,10.067l0,1.78c-3.515-2.661-7.708-3.503-11.794-2.291c-8.132,2.414-11.634,11.435-8.516,21.939  C14.463,84.6,23.354,91.843,30.971,89.581z M35.61,39.252c2.172-2.171,6.117-2.093,7.751-1.955c0.142,1.632,0.223,5.57-1.957,7.75  c-2.26,2.259-6.438,2.086-7.937,1.938C33.505,44.494,33.705,41.158,35.61,39.252z M73.463,13.271  c3.293-2.037,7.851-1.152,9.681-0.668c-0.385,1.854-1.627,6.327-4.92,8.364c-3.253,2.013-7.902,0.994-9.833,0.432  C69.269,18.633,70.622,15.028,73.463,13.271z M65.517,12.013c1.053,0,1.912,0.844,1.937,1.891l-0.609,5.809  c-0.207,0.604-0.394,1.182-0.561,1.722c-0.662-0.038-1.252-0.029-1.756,0.005l-0.948-7.545  C63.61,12.852,64.467,12.013,65.517,12.013z M50.602,40.078c-0.036-0.937,0.008-1.888,0.129-2.828  c0.889-6.859,5.979-12.448,12.459-13.61c0.02-0.006,2.054-0.525,4.714,0.009c7.5,1.505,12.54,7.85,12.54,15.787  c0,0.354-0.011,0.705-0.033,1.052c-0.188,3,0.665,5.883,2.401,8.117c3.834,4.931,5.642,11.192,5.09,17.629  c-0.999,11.658-10.001,21-20.941,21.731c-6.334,0.419-12.326-1.905-16.904-6.547c1.546-2.313,2.83-5.004,3.714-7.98  c3.001-10.112-0.145-18.832-7.638-21.623c0.477-0.868,0.994-1.717,1.568-2.514C49.693,46.536,50.724,43.261,50.602,40.078z   M20.235,53.416c4.042-1.198,8.241-0.007,11.517,3.271c0.188,0.188,0.442,0.293,0.708,0.293s0.52-0.105,0.708-0.293  c3.277-3.279,7.477-4.469,11.518-3.271c7.114,2.112,9.995,9.929,7.168,19.453c-3,10.105-10.777,16.74-17.333,14.796  c-0.537-0.16-1.068-0.382-1.581-0.662c-0.149-0.082-0.314-0.123-0.479-0.123s-0.33,0.041-0.479,0.123  c-0.513,0.28-1.044,0.503-1.58,0.662c-6.557,1.944-14.334-4.691-17.334-14.796C10.24,63.345,13.121,55.527,20.235,53.416z"/><path d="M17.93,70.049c0.096,0,0.193-0.014,0.29-0.043c0.529-0.16,0.828-0.718,0.668-1.247c-0.787-2.605-0.694-5.01,0.261-6.772  c0.68-1.254,1.761-2.127,3.126-2.526c0.53-0.155,0.834-0.71,0.68-1.24c-0.154-0.53-0.709-0.835-1.24-0.68  c-1.889,0.551-3.384,1.759-4.324,3.493c-1.212,2.235-1.36,5.184-0.418,8.303C17.104,69.77,17.5,70.049,17.93,70.049z"/></svg>